<svg width="199" height="63" viewBox="0 0 199 63" fill="none" xmlns="http://www.w3.org/2000/svg">
<g clip-path="url(#clip0)">
<path opacity="0.85" d="M91.5692 21.0404H54.5912V48.8846H91.5692V21.0404Z" fill="#FBE120"/>
<path d="M95.8509 45.404H58.8729V17.6566H95.8509V45.404ZM60.8191 43.4704H93.9047V19.5902H60.8191V43.4704Z" fill="#222222" stroke="#222222" stroke-width="0.5" stroke-miterlimit="10"/>
<path d="M68.8958 24.9076H48.7526L58.8729 7.98845L68.8958 24.9076ZM51.8665 23.1674H65.8792L58.7756 11.469L51.8665 23.1674Z" fill="#222222"/>
<path opacity="0.85" d="M93.9046 7.02164L84.9521 27.6147H102.76L93.9046 7.02164Z" fill="#FF5100"/>
<path d="M101.106 25.9711H81.9355L91.5692 3.73448L101.106 25.9711ZM84.7575 24.2309H98.3809L91.5692 8.47185L84.7575 24.2309Z" fill="#222222"/>
<path d="M9.73104 25.7778V32.5454H10.3149L18.5863 24.1342C18.9755 23.7475 19.2675 23.5541 19.754 23.5541C20.046 23.5541 20.2406 23.6508 20.4352 23.8442C20.6298 24.0375 20.7271 24.2309 20.7271 24.4242C20.7271 24.5209 20.7271 24.6176 20.6298 24.7143L12.6504 32.7388L20.8244 41.6335C21.1164 41.9235 21.2137 42.2136 21.2137 42.4069C21.2137 42.697 21.1164 42.8903 20.9218 43.1804C20.7271 43.3737 20.4352 43.4704 20.046 43.4704C19.6567 43.4704 19.1702 43.3737 18.7809 43.1804C18.3917 42.987 17.9051 42.6003 17.4186 42.1169L10.3149 34.0923H9.73104V41.6335C9.73104 42.3102 9.63373 42.7936 9.3418 43.0837C9.04987 43.3737 8.66063 43.4704 7.97945 43.4704C7.10366 43.4704 6.71442 42.987 6.71442 42.1169V25.0043C6.71442 24.5209 6.81173 24.1342 7.00635 23.9408C7.20097 23.7475 7.4929 23.6508 7.97945 23.6508C8.56332 23.6508 9.04987 23.8442 9.3418 24.2309C9.63373 24.5209 9.73104 25.101 9.73104 25.7778Z" fill="black"/>
<path d="M28.9012 43.4704C27.9281 43.4704 26.955 43.2771 26.1765 42.987C25.398 42.697 24.7168 42.2136 24.133 41.6335C23.5491 41.0534 23.1599 40.2799 22.8679 39.4098C22.576 38.5397 22.4787 37.4762 22.4787 36.316C22.4787 35.1558 22.6733 34.0924 22.9653 33.2222C23.2572 32.3521 23.7437 31.5786 24.2303 30.9986C24.8142 30.4185 25.4953 30.0317 26.2738 29.7417C27.0523 29.4517 27.9281 29.355 28.9985 29.355C29.9716 29.355 30.9447 29.4517 31.7232 29.7417C32.5017 30.0317 33.1829 30.4185 33.7667 31.0952C34.3506 31.6753 34.7398 32.4488 35.0318 33.3189C35.3237 34.189 35.5183 35.2525 35.5183 36.4127C35.5183 37.5729 35.421 38.6364 35.1291 39.5065C34.8371 40.3766 34.4479 41.1501 33.864 41.7302C33.2802 42.3102 32.599 42.7937 31.8205 43.0837C30.8474 43.3737 29.8743 43.4704 28.9012 43.4704ZM28.9012 42.4069C29.3877 42.4069 29.8743 42.3102 30.2635 42.1169C30.6528 41.9235 31.042 41.6335 31.334 41.2468C31.6259 40.86 31.9178 40.1833 32.0151 39.4098C32.1124 38.6364 32.3071 37.6696 32.3071 36.5094C32.3071 35.3492 32.2098 34.3824 32.0151 33.609C31.8205 32.8355 31.6259 32.2554 31.334 31.772C31.042 31.2886 30.6528 30.9986 30.2635 30.8052C29.8743 30.6118 29.3877 30.5152 28.9012 30.5152C28.4146 30.5152 28.0254 30.6118 27.5388 30.8052C27.1496 30.9986 26.7604 31.2886 26.4684 31.772C26.1765 32.2554 25.8846 32.8355 25.7873 33.609C25.6899 34.3824 25.4953 35.3492 25.4953 36.5094C25.4953 37.6696 25.5926 38.6364 25.6899 39.4098C25.7873 40.1833 26.0792 40.7634 26.3711 41.2468C26.6631 41.7302 27.0523 42.0202 27.4415 42.2136C27.8308 42.3102 28.3173 42.4069 28.9012 42.4069Z" fill="black"/>
<path d="M47.7795 30.7085H45.1521V41.6335C45.1521 42.4069 45.0548 42.8903 44.7628 43.0837C44.4709 43.2771 44.0817 43.4704 43.4978 43.4704C43.0113 43.4704 42.622 43.3737 42.4274 43.1804C42.2328 42.987 42.1355 42.6003 42.1355 42.2136V30.7085H39.6054V35.3492C39.6054 38.6364 39.5081 40.86 39.3135 41.9235C39.1188 42.987 38.7296 43.4704 38.0484 43.4704C37.6592 43.4704 37.3672 43.1804 37.2699 42.5036C37.0753 41.8268 37.0753 40.86 37.0753 39.5065V32.3521C37.0753 30.4185 37.3673 29.4517 37.9511 29.4517H49.4338C50.0176 29.4517 50.3095 30.4185 50.3095 32.3521V39.5065C50.3095 40.86 50.2122 41.9235 50.1149 42.5036C49.9203 43.1804 49.7257 43.4704 49.3364 43.4704C48.7526 43.4704 48.3633 42.987 48.0714 41.9235C47.8768 40.86 47.7795 38.733 47.7795 35.3492V30.7085Z" fill="black"/>
<path d="M103.441 38.153L101.981 42.0202C101.787 42.6003 101.495 42.987 101.203 43.1804C100.911 43.3737 100.619 43.4704 100.23 43.4704C99.9379 43.4704 99.7433 43.3737 99.646 43.2771C99.5487 43.0837 99.4514 42.987 99.4514 42.697C99.4514 42.5036 99.4514 42.3102 99.5487 42.0202L106.166 24.2309C106.263 24.0375 106.458 23.8442 106.75 23.7475C107.042 23.6508 107.334 23.5541 107.723 23.5541C108.112 23.5541 108.501 23.6508 108.793 23.7475C109.085 23.8442 109.28 24.0375 109.377 24.3276L115.8 42.1169C115.8 42.3102 115.897 42.4069 115.897 42.5036C115.897 42.7936 115.8 42.987 115.605 43.1804C115.41 43.3737 115.118 43.4704 114.729 43.4704C113.659 43.4704 112.978 42.987 112.588 42.0202L111.129 38.153H103.441ZM110.934 36.7027L107.528 26.9379H107.334L103.83 36.7027H110.934Z" fill="black"/>
<path d="M131.661 30.7085V42.1169C131.661 42.6003 131.564 42.8903 131.467 43.0837C131.272 43.2771 130.98 43.3737 130.591 43.3737C129.91 43.3737 129.52 43.1804 129.228 42.8903C128.936 42.5036 128.839 41.9235 128.839 41.1501V36.8961H122.611V41.4401C122.611 42.2136 122.514 42.7936 122.222 42.987C121.93 43.2771 121.444 43.3737 120.86 43.3737C120.47 43.3737 120.178 43.2771 119.984 43.0837C119.789 42.8903 119.789 42.5036 119.789 42.1169V30.7085C119.789 30.2251 119.887 29.9351 119.984 29.7417C120.178 29.5483 120.47 29.4517 120.86 29.4517C121.541 29.4517 121.93 29.645 122.222 29.9351C122.514 30.3218 122.611 30.9019 122.611 31.6753V35.5426H128.742V31.3853C128.742 30.6118 128.839 30.0317 129.131 29.7417C129.423 29.4517 129.91 29.355 130.493 29.355C130.883 29.355 131.175 29.4517 131.369 29.645C131.564 29.9351 131.661 30.3218 131.661 30.7085Z" fill="black"/>
<path d="M144.506 40.86C143.825 41.7302 143.144 42.4069 142.268 42.8903C141.489 43.2771 140.516 43.5671 139.446 43.5671C138.765 43.5671 138.084 43.4704 137.597 43.2771C137.111 43.0837 136.624 42.8903 136.235 42.5036C135.845 42.1169 135.651 41.7302 135.456 41.3434C135.262 40.86 135.164 40.3766 135.164 39.7965C135.164 39.2165 135.262 38.6364 135.456 38.0563C135.651 37.4762 136.04 36.8961 136.527 36.5094C137.013 36.026 137.792 35.6393 138.667 35.3492C139.543 35.0592 140.711 34.9625 142.171 34.9625H144.214V34.189C144.214 33.5123 144.117 33.0289 144.02 32.5455C143.922 32.0621 143.728 31.772 143.533 31.482C143.338 31.1919 143.046 30.9986 142.657 30.9019C142.268 30.8052 141.879 30.7085 141.392 30.7085C140.419 30.7085 139.641 31.0952 138.959 31.8687C138.376 32.5455 137.792 32.8355 137.208 32.8355C136.916 32.8355 136.624 32.7388 136.429 32.5455C136.235 32.3521 136.137 32.1587 136.137 31.8687C136.137 31.482 136.332 31.1919 136.624 30.9019C136.916 30.6118 137.402 30.3218 137.986 30.1284C138.57 29.9351 139.154 29.7417 139.835 29.645C140.516 29.5483 141.198 29.4517 141.879 29.4517C142.852 29.4517 143.728 29.5483 144.409 29.7417C145.09 29.9351 145.577 30.2251 145.966 30.7085C146.355 31.0952 146.647 31.6753 146.842 32.2554C147.036 32.9322 147.036 33.6089 147.036 34.4791V42.1169C147.036 42.6003 146.939 42.8903 146.842 43.0837C146.647 43.2771 146.355 43.3737 145.966 43.3737C145.382 43.3737 144.895 43.1804 144.603 42.7937C144.603 42.5036 144.506 41.8268 144.506 40.86ZM144.312 36.026H142.657C139.543 36.026 137.986 37.1862 137.986 39.4098C137.986 40.9567 138.765 41.7302 140.419 41.7302C140.808 41.7302 141.198 41.6335 141.587 41.5368C142.073 41.4401 142.463 41.1501 142.852 40.9567C143.241 40.6667 143.533 40.3766 143.825 39.8932C144.117 39.5065 144.214 39.0231 144.214 38.443V36.026H144.312Z" fill="black"/>
<path d="M162.898 30.7085V42.1169C162.898 42.6003 162.8 42.8903 162.703 43.0837C162.606 43.2771 162.217 43.3737 161.827 43.3737C161.146 43.3737 160.757 43.1804 160.465 42.8903C160.173 42.5036 160.076 41.9235 160.076 41.1501V30.7085H155.6V33.609C155.6 35.3492 155.502 36.8961 155.308 38.2496C155.113 39.5065 154.724 40.6667 154.14 41.5368C153.751 42.2136 153.264 42.6003 152.778 42.987C152.291 43.2771 151.707 43.4704 151.123 43.4704C150.734 43.4704 150.442 43.3737 150.247 43.1804C150.053 42.987 149.956 42.697 149.956 42.3103C149.956 42.0202 150.053 41.8268 150.345 41.5368C150.539 41.2468 150.831 41.1501 151.221 41.0534C151.61 40.9567 151.902 40.86 152.194 40.6667C152.486 40.4733 152.68 40.2799 152.875 39.9899C153.069 39.6999 153.264 39.4098 153.361 39.0231C153.459 38.6364 153.556 38.2496 153.653 37.8629C153.751 37.4762 153.751 37.0895 153.848 36.5094C153.848 35.9293 153.945 35.4459 153.945 35.0592C153.945 34.6724 153.945 34.0924 153.945 33.4156V30.6118C153.945 30.1284 154.043 29.8384 154.14 29.645C154.334 29.4517 154.626 29.355 155.113 29.355H162.119C162.509 29.355 162.8 29.4517 162.995 29.645C162.8 29.9351 162.898 30.3218 162.898 30.7085Z" fill="black"/>
<path d="M179.441 30.7085V42.1169C179.441 42.6003 179.343 42.8903 179.246 43.0837C179.149 43.2771 178.759 43.3737 178.37 43.3737C177.689 43.3737 177.3 43.1804 177.008 42.8903C176.716 42.5036 176.619 41.9235 176.619 41.1501V33.1255L170.196 42.697C170.001 42.987 169.807 43.1804 169.612 43.2771C169.32 43.3737 169.028 43.4704 168.639 43.4704C168.25 43.4704 167.958 43.3737 167.763 43.1804C167.569 42.987 167.569 42.6003 167.569 42.2136V30.7085C167.569 30.2251 167.666 29.9351 167.763 29.7417C167.958 29.5483 168.25 29.4517 168.639 29.4517C169.32 29.4517 169.71 29.645 170.001 29.9351C170.293 30.3218 170.391 30.9019 170.391 31.6753V39.7965L176.716 30.2251C176.911 29.9351 177.105 29.7417 177.397 29.5483C177.592 29.4517 177.981 29.355 178.37 29.355C178.759 29.355 179.051 29.4517 179.246 29.645C179.343 29.9351 179.441 30.3218 179.441 30.7085Z" fill="black"/>
<path d="M184.89 40.7633C185.085 41.2467 185.474 41.6335 185.863 41.9235C186.252 42.2136 186.934 42.4069 187.809 42.4069C189.95 42.4069 190.923 41.4401 190.923 39.5065C190.923 37.7662 189.853 36.9928 187.615 36.9928H185.96C185.766 36.9928 185.668 36.8961 185.571 36.7994C185.474 36.6061 185.474 36.5094 185.474 36.316C185.474 35.9293 185.668 35.7359 186.058 35.7359H187.809C188.782 35.7359 189.464 35.5426 189.95 35.0592C190.437 34.5758 190.729 33.899 190.729 33.0289C190.729 32.3521 190.534 31.772 190.047 31.2886C189.561 30.9019 188.977 30.7085 188.101 30.7085C186.934 30.7085 186.058 31.1919 185.377 32.2554C185.182 32.6421 184.987 32.8355 184.695 33.0289C184.501 33.2222 184.111 33.3189 183.82 33.3189C183.528 33.3189 183.236 33.2222 183.041 33.0289C182.846 32.8355 182.749 32.6421 182.749 32.2554C182.749 31.5786 183.236 30.9019 184.306 30.3218C184.695 30.1284 185.279 29.9351 186.058 29.7417C186.836 29.5483 187.517 29.5483 188.101 29.5483C191.799 29.5483 193.648 30.7085 193.648 32.9322C193.648 33.7056 193.356 34.3824 192.869 34.9625C192.383 35.5426 191.507 35.9293 190.437 36.2193V36.4127C191.507 36.4127 192.383 36.7027 193.064 37.2828C193.745 37.8629 194.037 38.6364 194.037 39.5065C194.037 40.7633 193.453 41.8268 192.383 42.5036C191.312 43.1804 189.658 43.6638 187.517 43.6638C185.96 43.6638 184.598 43.3737 183.625 42.697C182.749 42.1169 182.263 41.4401 182.263 40.7633C182.263 40.4733 182.36 40.1833 182.652 39.9899C182.846 39.7965 183.138 39.6999 183.43 39.6999C184.112 39.6032 184.598 39.9899 184.89 40.7633Z" fill="black"/>
</g>
<defs>
<clipPath id="clip0">
<rect width="199" height="67" fill="white" transform="translate(0 -4)"/>
</clipPath>
</defs>
</svg>
